# xmcd
#
# Track frame offsets: 
#        150
#        10975
#        21849
#        34736
#        44927
#        61343
#        71129
#        84075
#        98596
#        110326
#
# Disc length: 1594 seconds
#
# Revision: 0
# Processed by: cddbd v1.5.1PL2 Copyright (c) Steve Scherf et al.
# Submitted via: ExactAudioCopy v0.95b3
#
DISCID=7d06380a
DTITLE=harry k - My kinda Country
DYEAR=2003
DGENRE=Country
TTITLE0=Busted
TTITLE1=Folsom Prison Blues
TTITLE2=I still miss someone
TTITLE3=I walk the Line
TTITLE4=Lucille
TTITLE5=Orléans
TTITLE6=Tennessee Flattop Box
TTITLE7=Were you there
TTITLE8=Achy Breaky Heart
TTITLE9=Ring of Fire
EXTD=
EXTT0=
EXTT1=
EXTT2=
EXTT3=
EXTT4=
EXTT5=
EXTT6=
EXTT7=
EXTT8=
EXTT9=
PLAYORDER=
